<mxfile host="app.diagrams.net" agent="Mozilla/5.0 (Macintosh; Intel Mac OS X 10_15_7) AppleWebKit/537.36 (KHTML, like Gecko) Chrome/132.0.0.0 Safari/537.36" version="26.0.7">
  <diagram name="Page-1" id="Wvfmtu-aDcWZq3p-b0Sc">
    <mxGraphModel dx="473" dy="1056" grid="0" gridSize="10" guides="1" tooltips="1" connect="1" arrows="1" fold="1" page="0" pageScale="1" pageWidth="850" pageHeight="1100" math="0" shadow="0">
      <root>
        <mxCell id="0" />
        <mxCell id="1" parent="0" />
        <mxCell id="WnEO22BBWSqN6tGJC1Rd-1" value="Presentation Layer" style="swimlane;fontStyle=0;childLayout=stackLayout;horizontal=1;startSize=26;horizontalStack=0;resizeParent=1;resizeParentMax=0;resizeLast=0;collapsible=1;marginBottom=0;align=center;fontSize=14;labelBackgroundColor=none;fillColor=#F2CC8F;strokeColor=#E07A5F;fontColor=#393C56;" vertex="1" parent="1">
          <mxGeometry x="19" y="-61" width="160" height="86" as="geometry">
            <mxRectangle x="19" y="-61" width="153" height="29" as="alternateBounds" />
          </mxGeometry>
        </mxCell>
        <mxCell id="WnEO22BBWSqN6tGJC1Rd-2" value="User Interface (UI)" style="text;strokeColor=none;fillColor=none;spacingLeft=4;spacingRight=4;overflow=hidden;rotatable=0;points=[[0,0.5],[1,0.5]];portConstraint=eastwest;fontSize=12;whiteSpace=wrap;html=1;labelBackgroundColor=none;fontColor=#393C56;" vertex="1" parent="WnEO22BBWSqN6tGJC1Rd-1">
          <mxGeometry y="26" width="160" height="30" as="geometry" />
        </mxCell>
        <mxCell id="WnEO22BBWSqN6tGJC1Rd-3" value="Handles user inputs" style="text;strokeColor=none;fillColor=none;spacingLeft=4;spacingRight=4;overflow=hidden;rotatable=0;points=[[0,0.5],[1,0.5]];portConstraint=eastwest;fontSize=12;whiteSpace=wrap;html=1;labelBackgroundColor=none;fontColor=#393C56;" vertex="1" parent="WnEO22BBWSqN6tGJC1Rd-1">
          <mxGeometry y="56" width="160" height="30" as="geometry" />
        </mxCell>
        <mxCell id="WnEO22BBWSqN6tGJC1Rd-5" value="Application Layer" style="swimlane;fontStyle=0;childLayout=stackLayout;horizontal=1;startSize=26;horizontalStack=0;resizeParent=1;resizeParentMax=0;resizeLast=0;collapsible=1;marginBottom=0;align=center;fontSize=14;labelBackgroundColor=none;fillColor=#F2CC8F;strokeColor=#E07A5F;fontColor=#393C56;" vertex="1" parent="1">
          <mxGeometry x="19" y="79" width="160" height="116" as="geometry" />
        </mxCell>
        <mxCell id="WnEO22BBWSqN6tGJC1Rd-6" value="Business Logic" style="text;strokeColor=none;fillColor=none;spacingLeft=4;spacingRight=4;overflow=hidden;rotatable=0;points=[[0,0.5],[1,0.5]];portConstraint=eastwest;fontSize=12;whiteSpace=wrap;html=1;labelBackgroundColor=none;fontColor=#393C56;" vertex="1" parent="WnEO22BBWSqN6tGJC1Rd-5">
          <mxGeometry y="26" width="160" height="30" as="geometry" />
        </mxCell>
        <mxCell id="WnEO22BBWSqN6tGJC1Rd-7" value="Reservation Management" style="text;strokeColor=none;fillColor=none;spacingLeft=4;spacingRight=4;overflow=hidden;rotatable=0;points=[[0,0.5],[1,0.5]];portConstraint=eastwest;fontSize=12;whiteSpace=wrap;html=1;labelBackgroundColor=none;fontColor=#393C56;" vertex="1" parent="WnEO22BBWSqN6tGJC1Rd-5">
          <mxGeometry y="56" width="160" height="30" as="geometry" />
        </mxCell>
        <mxCell id="WnEO22BBWSqN6tGJC1Rd-8" value="Payment Processing" style="text;strokeColor=none;fillColor=none;spacingLeft=4;spacingRight=4;overflow=hidden;rotatable=0;points=[[0,0.5],[1,0.5]];portConstraint=eastwest;fontSize=12;whiteSpace=wrap;html=1;labelBackgroundColor=none;fontColor=#393C56;" vertex="1" parent="WnEO22BBWSqN6tGJC1Rd-5">
          <mxGeometry y="86" width="160" height="30" as="geometry" />
        </mxCell>
        <mxCell id="WnEO22BBWSqN6tGJC1Rd-9" value="Data Layer" style="swimlane;fontStyle=0;childLayout=stackLayout;horizontal=1;startSize=26;horizontalStack=0;resizeParent=1;resizeParentMax=0;resizeLast=0;collapsible=1;marginBottom=0;align=center;fontSize=14;labelBackgroundColor=none;fillColor=#F2CC8F;strokeColor=#E07A5F;fontColor=#393C56;" vertex="1" parent="1">
          <mxGeometry x="19" y="248" width="160" height="116" as="geometry" />
        </mxCell>
        <mxCell id="WnEO22BBWSqN6tGJC1Rd-10" value="Database (Reservations)" style="text;strokeColor=none;fillColor=none;spacingLeft=4;spacingRight=4;overflow=hidden;rotatable=0;points=[[0,0.5],[1,0.5]];portConstraint=eastwest;fontSize=12;whiteSpace=wrap;html=1;labelBackgroundColor=none;fontColor=#393C56;" vertex="1" parent="WnEO22BBWSqN6tGJC1Rd-9">
          <mxGeometry y="26" width="160" height="30" as="geometry" />
        </mxCell>
        <mxCell id="WnEO22BBWSqN6tGJC1Rd-11" value="Database (Customers)" style="text;strokeColor=none;fillColor=none;spacingLeft=4;spacingRight=4;overflow=hidden;rotatable=0;points=[[0,0.5],[1,0.5]];portConstraint=eastwest;fontSize=12;whiteSpace=wrap;html=1;labelBackgroundColor=none;fontColor=#393C56;" vertex="1" parent="WnEO22BBWSqN6tGJC1Rd-9">
          <mxGeometry y="56" width="160" height="30" as="geometry" />
        </mxCell>
        <mxCell id="WnEO22BBWSqN6tGJC1Rd-12" value="Database (Payments)" style="text;strokeColor=none;fillColor=none;spacingLeft=4;spacingRight=4;overflow=hidden;rotatable=0;points=[[0,0.5],[1,0.5]];portConstraint=eastwest;fontSize=12;whiteSpace=wrap;html=1;labelBackgroundColor=none;fontColor=#393C56;" vertex="1" parent="WnEO22BBWSqN6tGJC1Rd-9">
          <mxGeometry y="86" width="160" height="30" as="geometry" />
        </mxCell>
        <mxCell id="WnEO22BBWSqN6tGJC1Rd-13" value="" style="endArrow=classic;html=1;rounded=0;fontSize=12;startSize=8;endSize=8;curved=1;entryX=0.5;entryY=0;entryDx=0;entryDy=0;exitX=0.5;exitY=1.067;exitDx=0;exitDy=0;exitPerimeter=0;labelBackgroundColor=none;strokeColor=#E07A5F;fontColor=default;" edge="1" parent="1">
          <mxGeometry width="50" height="50" relative="1" as="geometry">
            <mxPoint x="98.5" y="26.00999999999999" as="sourcePoint" />
            <mxPoint x="98.5" y="79" as="targetPoint" />
          </mxGeometry>
        </mxCell>
        <mxCell id="WnEO22BBWSqN6tGJC1Rd-14" value="" style="endArrow=classic;html=1;rounded=0;fontSize=12;startSize=8;endSize=8;curved=1;entryX=0.5;entryY=0;entryDx=0;entryDy=0;exitX=0.5;exitY=1.067;exitDx=0;exitDy=0;exitPerimeter=0;labelBackgroundColor=none;strokeColor=#E07A5F;fontColor=default;" edge="1" parent="1">
          <mxGeometry width="50" height="50" relative="1" as="geometry">
            <mxPoint x="98.5" y="195" as="sourcePoint" />
            <mxPoint x="98.5" y="247.99" as="targetPoint" />
          </mxGeometry>
        </mxCell>
        <mxCell id="WnEO22BBWSqN6tGJC1Rd-15" value="&lt;p style=&quot;margin:0px;margin-top:4px;text-align:center;&quot;&gt;&lt;b&gt;Customer&lt;/b&gt;&lt;/p&gt;&lt;hr size=&quot;1&quot; style=&quot;border-style:solid;&quot;&gt;&lt;p style=&quot;margin:0px;margin-left:4px;&quot;&gt;- name: String&lt;/p&gt;&lt;p style=&quot;margin:0px;margin-left:4px;&quot;&gt;- address: String&lt;/p&gt;&lt;p style=&quot;margin:0px;margin-left:4px;&quot;&gt;- phoneNumber: String&lt;/p&gt;&lt;hr size=&quot;1&quot; style=&quot;border-style:solid;&quot;&gt;&lt;p style=&quot;margin:0px;margin-left:4px;&quot;&gt;+ makeReservation()&lt;/p&gt;&lt;p style=&quot;margin:0px;margin-left:4px;&quot;&gt;+ cancelReservation&lt;/p&gt;" style="verticalAlign=top;align=left;overflow=fill;html=1;whiteSpace=wrap;strokeColor=#E07A5F;fontColor=#393C56;fillColor=#F2CC8F;" vertex="1" parent="1">
          <mxGeometry x="277" y="-61" width="160" height="123" as="geometry" />
        </mxCell>
        <mxCell id="WnEO22BBWSqN6tGJC1Rd-18" value="Use" style="endArrow=open;endSize=12;dashed=1;html=1;rounded=0;strokeColor=#E07A5F;fontSize=12;fontColor=#393C56;curved=1;fillColor=#F2CC8F;exitX=0.456;exitY=1;exitDx=0;exitDy=0;exitPerimeter=0;" edge="1" parent="1">
          <mxGeometry width="160" relative="1" as="geometry">
            <mxPoint x="356.50000000000006" y="62" as="sourcePoint" />
            <mxPoint x="356.5" y="140" as="targetPoint" />
          </mxGeometry>
        </mxCell>
        <mxCell id="WnEO22BBWSqN6tGJC1Rd-19" value="&lt;p style=&quot;margin:0px;margin-top:4px;text-align:center;&quot;&gt;&lt;b&gt;Reservation&lt;/b&gt;&lt;/p&gt;&lt;hr size=&quot;1&quot; style=&quot;border-style:solid;&quot;&gt;&lt;p style=&quot;margin:0px;margin-left:4px;&quot;&gt;- startDate: Date&lt;/p&gt;&lt;p style=&quot;margin:0px;margin-left:4px;&quot;&gt;- endDate: Date&lt;/p&gt;&lt;p style=&quot;margin:0px;margin-left:4px;&quot;&gt;-Status: String&lt;/p&gt;&lt;hr size=&quot;1&quot; style=&quot;border-style:solid;&quot;&gt;&lt;p style=&quot;margin:0px;margin-left:4px;&quot;&gt;+ confirmReservation()&lt;/p&gt;&lt;p style=&quot;margin:0px;margin-left:4px;&quot;&gt;+ cancelReservation()&lt;/p&gt;" style="verticalAlign=top;align=left;overflow=fill;html=1;whiteSpace=wrap;strokeColor=#E07A5F;fontColor=#393C56;fillColor=#F2CC8F;" vertex="1" parent="1">
          <mxGeometry x="277" y="141" width="160" height="125" as="geometry" />
        </mxCell>
        <mxCell id="WnEO22BBWSqN6tGJC1Rd-20" value="Use" style="endArrow=open;endSize=12;dashed=1;html=1;rounded=0;strokeColor=#E07A5F;fontSize=12;fontColor=#393C56;curved=1;fillColor=#F2CC8F;exitX=0.456;exitY=1;exitDx=0;exitDy=0;exitPerimeter=0;" edge="1" parent="1">
          <mxGeometry width="160" relative="1" as="geometry">
            <mxPoint x="356.5" y="267" as="sourcePoint" />
            <mxPoint x="356.49999999999994" y="345" as="targetPoint" />
          </mxGeometry>
        </mxCell>
        <mxCell id="WnEO22BBWSqN6tGJC1Rd-21" value="&lt;p style=&quot;margin:0px;margin-top:4px;text-align:center;&quot;&gt;&lt;b&gt;Room&lt;/b&gt;&lt;/p&gt;&lt;hr size=&quot;1&quot; style=&quot;border-style:solid;&quot;&gt;&lt;p style=&quot;margin:0px;margin-left:4px;&quot;&gt;- roomNumber: int&lt;/p&gt;&lt;p style=&quot;margin:0px;margin-left:4px;&quot;&gt;- price: double&lt;/p&gt;&lt;p style=&quot;margin:0px;margin-left:4px;&quot;&gt;-type: String&lt;/p&gt;&lt;hr size=&quot;1&quot; style=&quot;border-style:solid;&quot;&gt;&lt;p style=&quot;margin:0px;margin-left:4px;&quot;&gt;+ checkAvailability()&lt;/p&gt;&lt;p style=&quot;margin:0px;margin-left:4px;&quot;&gt;+ assignRoom()&lt;/p&gt;" style="verticalAlign=top;align=left;overflow=fill;html=1;whiteSpace=wrap;strokeColor=#E07A5F;fontColor=#393C56;fillColor=#F2CC8F;" vertex="1" parent="1">
          <mxGeometry x="277" y="345" width="160" height="126" as="geometry" />
        </mxCell>
        <mxCell id="WnEO22BBWSqN6tGJC1Rd-23" value="&lt;p style=&quot;margin:0px;margin-top:4px;text-align:center;&quot;&gt;&lt;b&gt;Payment&lt;/b&gt;&lt;/p&gt;&lt;hr size=&quot;1&quot; style=&quot;border-style:solid;&quot;&gt;&lt;p style=&quot;margin:0px;margin-left:4px;&quot;&gt;- amount: double&lt;/p&gt;&lt;p style=&quot;margin:0px;margin-left:4px;&quot;&gt;- paymentDate: Date&lt;/p&gt;&lt;p style=&quot;margin:0px;margin-left:4px;&quot;&gt;- status: String&lt;/p&gt;&lt;hr size=&quot;1&quot; style=&quot;border-style:solid;&quot;&gt;&lt;p style=&quot;margin:0px;margin-left:4px;&quot;&gt;+ processPayment()&lt;/p&gt;" style="verticalAlign=top;align=left;overflow=fill;html=1;whiteSpace=wrap;strokeColor=#E07A5F;fontColor=#393C56;fillColor=#F2CC8F;" vertex="1" parent="1">
          <mxGeometry x="277" y="550" width="160" height="109" as="geometry" />
        </mxCell>
        <mxCell id="WnEO22BBWSqN6tGJC1Rd-24" value="Use" style="endArrow=open;endSize=12;dashed=1;html=1;rounded=0;strokeColor=#E07A5F;fontSize=12;fontColor=#393C56;curved=1;fillColor=#F2CC8F;exitX=0.456;exitY=1;exitDx=0;exitDy=0;exitPerimeter=0;" edge="1" parent="1">
          <mxGeometry width="160" relative="1" as="geometry">
            <mxPoint x="356.5" y="471" as="sourcePoint" />
            <mxPoint x="356.49999999999994" y="549" as="targetPoint" />
          </mxGeometry>
        </mxCell>
      </root>
    </mxGraphModel>
  </diagram>
</mxfile>
